<?xml version="1.0" encoding="utf-8"?>
<svg xmlns="http://www.w3.org/2000/svg"
	xmlns:xlink="http://www.w3.org/1999/xlink"
	width="44px" height="44px" viewBox="0 0 44 44">
<filter filterUnits="objectBoundingBox" x="0.00" y="0.00" width="100.00" height="100.00" id="filter0">
<feFlood flood-color="rgb(199,178,153)" result="coFloodOut1"/>
<feComposite in="coFloodOut1" in2="SourceAlpha" operator="in" result="coOverlay1"/>
<feBlend in="coOverlay1" in2="SourceGraphic" mode="normal" result="colorOverlay1"/>
</filter>
<path fillRule="evenodd" d="M 19.94 30.25C 25.63 30.25 30.25 24.62 30.25 17.7 30.25 10.78 25.63 5.16 19.94 5.16 17.12 5.16 14.5 6.5 12.54 8.94 10.66 11.3 9.62 14.41 9.62 17.7 9.62 24.62 14.25 30.25 19.94 30.25ZM 19.94 7.91C 24.11 7.91 27.5 12.3 27.5 17.7 27.5 23.11 24.11 27.5 19.94 27.5 15.77 27.5 12.37 23.11 12.37 17.7 12.37 12.3 15.77 7.91 19.94 7.91ZM 28.6 28.87C 27.84 28.87 27.22 29.49 27.22 30.25 27.22 31.01 27.84 31.62 28.6 31.62 33.3 31.62 37.12 35.45 37.12 40.15 37.12 40.76 36.63 41.25 36.02 41.25 36.02 41.25 3.85 41.25 3.85 41.25 3.24 41.25 2.75 40.76 2.75 40.15 2.75 35.45 6.57 31.62 11.27 31.62 12.03 31.62 12.65 31.01 12.65 30.25 12.65 29.49 12.03 28.87 11.27 28.87 5.06 28.87-0 33.93-0 40.15-0 42.27 1.73 44 3.85 44 3.85 44 36.02 44 36.02 44 38.15 44 39.87 42.27 39.87 40.15 39.87 33.93 34.82 28.87 28.6 28.87ZM 20.94 3.63C 21.93 3.05 22.98 2.75 24.06 2.75 28.23 2.75 31.62 7.15 31.62 12.55 31.62 13.52 31.52 14.47 31.31 15.38 31.13 16.11 31.59 16.85 32.33 17.03 32.43 17.05 32.54 17.06 32.64 17.06 33.27 17.06 33.83 16.64 33.98 16 34.24 14.89 34.37 13.73 34.37 12.55 34.37 5.63 29.75-0 24.06-0 22.5-0 20.94 0.44 19.54 1.26 18.89 1.65 18.67 2.49 19.06 3.14 19.45 3.8 20.29 4.01 20.94 3.63ZM 33 23.37C 32.24 23.37 31.62 23.99 31.62 24.75 31.62 25.51 32.24 26.12 33 26.12 37.7 26.12 41.25 30.04 41.25 34.74 41.25 34.9 41.22 35.05 41.16 35.19 40.85 35.89 41.16 36.7 41.85 37.01 42.03 37.09 42.22 37.12 42.41 37.12 42.94 37.12 43.44 36.82 43.67 36.31 43.89 35.81 44 35.29 44 34.74 44 28.53 39.22 23.37 33 23.37Z" fill="rgb(0,0,0)" filter="url(#filter0)"/></svg>