<?xml version="1.0" encoding="utf-8"?>
<svg xmlns="http://www.w3.org/2000/svg"
	xmlns:xlink="http://www.w3.org/1999/xlink"
	width="54px" height="44px" viewBox="0 0 54 44">
<filter filterUnits="objectBoundingBox" x="0.00" y="0.00" width="100.00" height="100.00" id="filter0">
<feFlood flood-color="rgb(199,178,153)" result="coFloodOut1"/>
<feComposite in="coFloodOut1" in2="SourceAlpha" operator="in" result="coOverlay1"/>
<feBlend in="coOverlay1" in2="SourceGraphic" mode="normal" result="colorOverlay1"/>
</filter>
<path fillRule="evenodd" d="M 52.31 40.61C 52.31 40.61 1.69 40.61 1.69 40.61 0.76 40.61 0 41.37 0 42.3 0 43.24 0.76 44 1.69 44 1.69 44 52.31 44 52.31 44 53.24 44 54 43.24 54 42.3 54 41.37 53.24 40.61 52.31 40.61ZM 28.69 6.77C 28.69 6.77 28.69 3.39 28.69 3.39 28.69 3.39 32.06 3.39 32.06 3.39 32.99 3.39 33.75 2.63 33.75 1.69 33.75 0.76 32.99 0 32.06 0 32.06 0 21.94 0 21.94 0 21.01 0 20.25 0.76 20.25 1.69 20.25 2.63 21.01 3.39 21.94 3.39 21.94 3.39 25.31 3.39 25.31 3.39 25.31 3.39 25.3 6.91 25.31 6.77 11.19 7.65 0 19.46 0 33.84 0 35.22 0 34.6 0 35.54 0 36.47 0.76 37.23 1.69 37.23 1.69 37.23 52.31 37.23 52.31 37.23 53.24 37.23 54 36.47 54 35.54 54 34.6 54 35.32 54 33.84 54 19.46 42.81 7.65 28.69 6.77ZM 3.38 33.84C 3.38 20.76 13.95 10.16 27 10.16 40.05 10.16 50.62 20.76 50.62 33.84 50.62 33.84 3.38 33.84 3.38 33.84Z" fill="rgb(0,0,0)" filter="url(#filter0)"/></svg>