<?xml version="1.0" encoding="utf-8"?>
<svg xmlns="http://www.w3.org/2000/svg"
	xmlns:xlink="http://www.w3.org/1999/xlink"
	width="44px" height="44px" viewBox="0 0 44 44">
<filter filterUnits="objectBoundingBox" x="0.00" y="0.00" width="100.00" height="100.00" id="filter0">
<feFlood flood-color="rgb(199,178,153)" result="coFloodOut1"/>
<feComposite in="coFloodOut1" in2="SourceAlpha" operator="in" result="coOverlay1"/>
<feBlend in="coOverlay1" in2="SourceGraphic" mode="normal" result="colorOverlay1"/>
</filter>
<path fillRule="evenodd" d="M 30.25-0C 29.83-0 29.4 0.03 28.98 0.06 28.83 0.08 28.68 0.1 28.52 0.12 28.27 0.15 28.01 0.19 27.76 0.24 27.57 0.27 27.38 0.31 27.2 0.35 26.99 0.4 26.78 0.46 26.57 0.51 26.37 0.57 26.18 0.62 25.98 0.69 25.81 0.74 25.63 0.81 25.46 0.88 25 1.05 24.55 1.24 24.12 1.46 24.03 1.5 23.94 1.54 23.86 1.59 23.63 1.71 23.41 1.84 23.18 1.98 23.06 2.05 22.94 2.12 22.82 2.2 22.6 2.34 22.4 2.48 22.19 2.63 22.13 2.68 22.06 2.72 22 2.76 19.62 0.97 16.73-0 13.75-0 6.17-0-0 6.17-0 13.75-0 26.19 8 37.45 21.41 43.86 21.59 43.95 21.8 44 22 44 22.2 44 22.41 43.95 22.59 43.86 36 37.45 44 26.19 44 13.75 44 6.17 37.83-0 30.25-0ZM 22 41.1C 9.93 35.11 2.75 24.93 2.75 13.75 2.75 7.68 7.68 2.75 13.75 2.75 15.97 2.75 18.12 3.43 19.94 4.68 17.81 7.11 16.5 10.28 16.5 13.75 16.5 14.51 17.11 15.12 17.87 15.12 18.64 15.12 19.25 14.51 19.25 13.75 19.25 10.48 20.7 7.54 22.97 5.52 23.18 5.33 23.4 5.16 23.63 4.99 23.68 4.95 23.73 4.91 23.78 4.87 24 4.71 24.22 4.56 24.45 4.42 24.51 4.38 24.58 4.34 24.64 4.3 24.86 4.17 25.09 4.05 25.32 3.93 25.4 3.89 25.48 3.85 25.56 3.81 25.78 3.71 26.01 3.61 26.23 3.52 26.33 3.48 26.43 3.45 26.54 3.41 26.75 3.33 26.97 3.26 27.18 3.2 27.32 3.16 27.44 3.12 27.58 3.09 27.78 3.04 27.97 2.99 28.17 2.95 28.35 2.92 28.54 2.9 28.72 2.87 28.87 2.85 29.03 2.82 29.19 2.8 29.54 2.77 29.89 2.75 30.25 2.75 36.32 2.75 41.25 7.68 41.25 13.75 41.25 24.93 34.07 35.11 22 41.1ZM 30.25 5.5C 29.49 5.5 28.87 6.12 28.87 6.87 28.87 7.63 29.49 8.25 30.25 8.25 33.28 8.25 35.75 10.72 35.75 13.75 35.75 14.51 36.36 15.12 37.12 15.12 37.88 15.12 38.5 14.51 38.5 13.75 38.5 9.2 34.8 5.5 30.25 5.5Z" fill="rgb(0,0,0)" filter="url(#filter0)"/></svg>