<?xml version="1.0" encoding="utf-8"?>
<svg xmlns="http://www.w3.org/2000/svg"
	xmlns:xlink="http://www.w3.org/1999/xlink"
	width="44px" height="44px" viewBox="0 0 44 44">
<filter filterUnits="objectBoundingBox" x="0.00" y="0.00" width="100.00" height="100.00" id="filter0">
<feFlood flood-color="rgb(199,178,153)" result="coFloodOut1"/>
<feComposite in="coFloodOut1" in2="SourceAlpha" operator="in" result="coOverlay1"/>
<feBlend in="coOverlay1" in2="SourceGraphic" mode="normal" result="colorOverlay1"/>
</filter>
<path fillRule="evenodd" d="M 28.87 23.37C 28.87 23.37 15.13 23.37 15.13 23.37 14.37 23.37 13.75 23.99 13.75 24.75 13.75 25.51 14.37 26.12 15.13 26.12 15.13 26.12 28.87 26.12 28.87 26.12 29.63 26.12 30.25 25.51 30.25 24.75 30.25 23.99 29.63 23.37 28.87 23.37ZM 31.62 15.13C 31.62 15.13 12.38 15.13 12.38 15.13 11.62 15.13 11 15.74 11 16.5 11 17.26 11.62 17.87 12.38 17.87 12.38 17.87 31.62 17.87 31.62 17.87 32.38 17.87 33 17.26 33 16.5 33 15.74 32.38 15.13 31.62 15.13ZM 22 0C 9.85 0 0 8.62 0 19.25 0 25.32 3.23 30.73 8.25 34.26 8.25 34.26 8.25 44 8.25 44 8.25 44 17.89 38.15 17.89 38.15 19.22 38.37 20.59 38.5 22 38.5 34.15 38.5 44 29.88 44 19.25 44 8.62 34.15 0 22 0ZM 22 35.75C 20.39 35.75 18.84 35.56 17.35 35.24 17.35 35.24 10.88 39.13 10.88 39.13 10.88 39.13 10.97 32.76 10.97 32.76 6.01 29.77 2.75 24.84 2.75 19.25 2.75 10.14 11.37 2.75 22 2.75 32.63 2.75 41.25 10.14 41.25 19.25 41.25 28.36 32.63 35.75 22 35.75Z" fill="rgb(0,0,0)" filter="url(#filter0)"/></svg>