<?xml version="1.0" encoding="utf-8"?>
<svg xmlns="http://www.w3.org/2000/svg"
	xmlns:xlink="http://www.w3.org/1999/xlink"
	width="64px" height="56px" viewBox="0 0 64 56">
<filter filterUnits="objectBoundingBox" x="0.00" y="0.00" width="100.00" height="100.00" id="filter0">
<feFlood flood-color="rgb(255,255,255)" result="coFloodOut1"/>
<feComposite in="coFloodOut1" in2="SourceAlpha" operator="in" result="coOverlay1"/>
<feBlend in="coOverlay1" in2="SourceGraphic" mode="normal" result="colorOverlay1"/>
</filter>
<path fillRule="evenodd" d="M 52.87 55.13C 52.87 55.13 58.13 45.94 58.13 45.94 58.13 45.94 63.38 55.13 63.38 55.13 63.38 55.13 52.87 55.13 52.87 55.13ZM 46.3 45.17C 46.3 45.17 56.81 45.17 56.81 45.17 56.81 45.17 51.56 54.36 51.56 54.36 51.56 54.36 46.3 45.17 46.3 45.17ZM 51.56 34.45C 51.56 34.45 56.81 43.64 56.81 43.64 56.81 43.64 46.3 43.64 46.3 43.64 46.3 43.64 51.56 34.45 51.56 34.45ZM 39.74 33.69C 39.74 33.69 50.24 33.69 50.24 33.69 50.24 33.69 44.99 42.87 44.99 42.87 44.99 42.87 39.74 33.69 39.74 33.69ZM 44.99 22.97C 44.99 22.97 50.24 32.15 50.24 32.15 50.24 32.15 39.74 32.15 39.74 32.15 39.74 32.15 44.99 22.97 44.99 22.97ZM 33.17 22.2C 33.17 22.2 43.68 22.2 43.68 22.2 43.68 22.2 38.42 31.39 38.42 31.39 38.42 31.39 33.17 22.2 33.17 22.2ZM 38.42 11.48C 38.42 11.48 43.68 20.67 43.68 20.67 43.68 20.67 33.17 20.67 33.17 20.67 33.17 20.67 38.42 11.48 38.42 11.48ZM 26.6 10.71C 26.6 10.71 37.11 10.71 37.11 10.71 37.11 10.71 31.85 19.9 31.85 19.9 31.85 19.9 26.6 10.71 26.6 10.71ZM 31.85-0.01C 31.85-0.01 37.11 9.18 37.11 9.18 37.11 9.18 26.6 9.18 26.6 9.18 26.6 9.18 31.85-0.01 31.85-0.01ZM 20.03 20.67C 20.03 20.67 25.29 11.48 25.29 11.48 25.29 11.48 30.54 20.67 30.54 20.67 30.54 20.67 20.03 20.67 20.03 20.67ZM 13.46 32.15C 13.46 32.15 18.72 22.97 18.72 22.97 18.72 22.97 23.97 32.15 23.97 32.15 23.97 32.15 13.46 32.15 13.46 32.15ZM 6.9 43.64C 6.9 43.64 12.15 34.45 12.15 34.45 12.15 34.45 17.4 43.64 17.4 43.64 17.4 43.64 6.9 43.64 6.9 43.64ZM 0.33 55.13C 0.33 55.13 5.58 45.94 5.58 45.94 5.58 45.94 10.84 55.13 10.84 55.13 10.84 55.13 0.33 55.13 0.33 55.13ZM 17.4 45.17C 17.4 45.17 12.15 54.36 12.15 54.36 12.15 54.36 6.9 45.17 6.9 45.17 6.9 45.17 17.4 45.17 17.4 45.17ZM 23.97 33.69C 23.97 33.69 18.72 42.87 18.72 42.87 18.72 42.87 13.46 33.69 13.46 33.69 13.46 33.69 23.97 33.69 23.97 33.69ZM 30.54 22.2C 30.54 22.2 25.29 31.39 25.29 31.39 25.29 31.39 20.03 22.2 20.03 22.2 20.03 22.2 30.54 22.2 30.54 22.2ZM 37.11 55.13C 37.11 55.13 26.6 55.13 26.6 55.13 26.6 55.13 31.85 45.94 31.85 45.94 31.85 45.94 37.11 55.13 37.11 55.13ZM 43.68 45.17C 43.68 45.17 38.42 54.36 38.42 54.36 38.42 54.36 33.17 45.17 33.17 45.17 33.17 45.17 43.68 45.17 43.68 45.17ZM 50.24 55.13C 50.24 55.13 39.74 55.13 39.74 55.13 39.74 55.13 44.99 45.94 44.99 45.94 44.99 45.94 50.24 55.13 50.24 55.13Z" fill="rgb(0,0,0)" filter="url(#filter0)"/></svg>