<?xml version="1.0" encoding="utf-8"?>
<svg xmlns="http://www.w3.org/2000/svg"
	xmlns:xlink="http://www.w3.org/1999/xlink"
	width="22px" height="22px" viewBox="0 0 22 22">
<filter filterUnits="objectBoundingBox" x="0.00" y="0.00" width="100.00" height="100.00" id="filter0">
<feFlood flood-color="rgb(199,178,153)" result="coFloodOut1"/>
<feComposite in="coFloodOut1" in2="SourceAlpha" operator="in" result="coOverlay1"/>
<feBlend in="coOverlay1" in2="SourceGraphic" mode="normal" result="colorOverlay1"/>
</filter>
<path fillRule="evenodd" d="M 14.42 10.43C 14.42 10.43 9.64 5.66 9.64 5.66 9.36 5.37 8.89 5.37 8.6 5.66 8.32 5.95 8.32 6.42 8.6 6.7 8.6 6.7 12.86 10.96 12.86 10.96 12.86 10.96 8.6 15.21 8.6 15.21 8.32 15.5 8.32 15.96 8.6 16.25 8.89 16.54 9.36 16.54 9.64 16.25 9.64 16.25 14.42 11.48 14.42 11.48 14.56 11.33 14.63 11.15 14.63 10.96 14.63 10.77 14.56 10.58 14.42 10.43ZM 11.01 0.03C 4.95 0.03 0.03 4.94 0.03 11.01 0.03 17.08 4.95 21.99 11.01 21.99 17.08 21.99 22 17.08 22 11.01 22 4.94 17.08 0.03 11.01 0.03ZM 11.01 20.52C 5.77 20.52 1.5 16.25 1.5 11.01 1.5 5.77 5.77 1.5 11.01 1.5 16.26 1.5 20.52 5.77 20.52 11.01 20.52 16.25 16.26 20.52 11.01 20.52Z" fill="rgb(0,0,0)" filter="url(#filter0)"/></svg>